      ßßßßßßßßßßßßßßßßßßßßßßßßßßßßßßßßßßßßßßßßßßßßßßßßßßßßßßßßßßßßßßßßßßßßßß

                  Û°°°°°°°°°°°°°°°°°°°°°°°°°°°°°°°°°°°°°°°Û
                 ÛÛ Race To Witch Mountian[2009]DvDrip-LW ÛÛ
                  Û°°°°°°°°°°°°°°°°°°°°°°°°°°°°°°°°°°°°°°°Û

File Name    : Race To Witch Mountian[2009]DvDrip-LW
Type         : Movie
Format       : AVI
File Size    : 701 Mb
Duration     : 01:38:18
Language     : English
Source       : DvD
Subtitles    : None
Genre        : Adventure | Fantasy | Sci-Fi | Thriller
IMDB Link    : http://www.imdb.com/title/tt1075417/
IMDB Rating  : 6.2/10
IMDB Votes   : 4,276 Votes
     ÜÜÜÜÜÜÜÜÜÜÜÜÜÜÜÜÜÜÜÜÜÜÜÜÜÜÜÜÜÜÜÜÜÜÜÜÜÜÜÜÜÜÜÜÜÜÜÜÜÜÜÜÜÜÜÜÜÜÜÜÜÜÜÜÜÜÜÜÜÜ
 
                        Û°°°°°°°°°°°°°°°°°°°°°°°°Û
                       ÛÛ       Video Info       ÛÛ
                        Û°°°°°°°°°°°°°°°°°°°°°°°°Û

Format                           : MPEG-4 Visual
Format profile                   : Streaming Video@L1
Format settings, BVOP            : Yes
Format settings, QPel            : No
Format settings, GMC             : No warppoints
Format settings, Matrix          : Default (H.263)
Codec ID                         : XVID
Codec ID/Hint                    : XviD
Duration                         : 1h 38mn
Bit rate                         : 824 Kbps
Width                            : 624 pixels
Height                           : 256 pixels
Display aspect ratio             : 2.438
Frame rate                       : 23.976 fps
Resolution                       : 24 bits
Colorimetry                      : 4:2:0
Scan type                        : Progressive
Bits/(Pixel*Frame)               : 0.215
Stream size                      : 579 MiB (83%)
Writing library                  : XviD 1.1.2
     ÜÜÜÜÜÜÜÜÜÜÜÜÜÜÜÜÜÜÜÜÜÜÜÜÜÜÜÜÜÜÜÜÜÜÜÜÜÜÜÜÜÜÜÜÜÜÜÜÜÜÜÜÜÜÜÜÜÜÜÜÜÜÜÜÜÜÜÜÜÜ

                         Û°°°°°°°°°°°°°°°°°°°°°°°°Û
                        ÛÛ      Sound Info        ÛÛ
                         Û°°°°°°°°°°°°°°°°°°°°°°°°Û

Format                           : MPEG Audio
Format version                   : Version 1
Format profile                   : Layer 3
Codec ID                         : 55
Codec ID/Hint                    : MP3
Duration                         : 1h 38mn
Bit rate mode                    : Variable
Bit rate                         : 161 Kbps
Nominal bit rate                 : 160 Kbps
Channel(s)                       : 2 channels
Sampling rate                    : 48.0 KHz
Resolution                       : 16 bits
Video delay                      : 1s 584ms
Stream size                      : 113 MiB (16%)
Alignment                        : Split accross interleaves
Interleave, duration             : 24 ms (0.58 video frame)
Interleave, preload duration     : 1145 ms
Writing library                  : LAME3.90.
Encoding settings                : ABR

    ÜÜÜÜÜÜÜÜÜÜÜÜÜÜÜÜÜÜÜÜÜÜÜÜÜÜÜÜÜÜÜÜÜÜÜÜÜÜÜÜÜÜÜÜÜÜÜÜÜÜÜÜÜÜÜÜÜÜÜÜÜÜÜÜÜÜÜÜÜÜ

                          Û°°°°°°°°°°°°°°°°°°°°°°°°Û
                         ÛÛ          Plot          ÛÛ
                          Û°°°°°°°°°°°°°°°°°°°°°°°°Û

Two young siblings (AnnaSophia Robb and Alexander 
Ludwig) find themselves on the run from a dark 
organization seeking to exploit their paranormal 
abilities in this remake of the beloved Disney 
classic. A helpful cab driver (Dwayne Johnson) and 
a UFO specialist (Carla Gugino) try to keep the 
kids safe. Kim Richards and Ike Eisenmann, who 
played the siblings in the original movie, co-star, 
along with Ciarán Hinds and Cheech Marin. 

Starring: Dwayne "The Rock" Johnson, Carla Gugino

Director: Andy Fickman
    ÜÜÜÜÜÜÜÜÜÜÜÜÜÜÜÜÜÜÜÜÜÜÜÜÜÜÜÜÜÜÜÜÜÜÜÜÜÜÜÜÜÜÜÜÜÜÜÜÜÜÜÜÜÜÜÜÜÜÜÜÜÜÜÜÜÜÜÜÜÜ